<?xml version="1.0" encoding="UTF-8" standalone="no"?><svg xmlns="http://www.w3.org/2000/svg" xmlns:xlink="http://www.w3.org/1999/xlink" contentScriptType="text/ecmascript" fill="#000000" width="34.8" zoomAndPan="magnify" contentStyleType="text/css" viewBox="-0.3 0.5 34.8 25.6" height="25.6" preserveAspectRatio="xMidYMid meet" version="1"><g fill="#ffffff" id="change1_1"><path fill="inherit" d="M 8.253906 0.5 C 13.042969 0.5 16.503906 4.457031 16.5 10.3125 C 16.472656 18.820312 10.074219 24.839844 0.84375 25.996094 C -0.0117188 26.101562 -0.339844 24.914062 0.445312 24.566406 C 3.988281 22.988281 5.777344 20.992188 6.007812 19.015625 C 6.179688 17.535156 5.378906 16.242188 4.367188 16 C 1.753906 15.371094 0.00390625 12.117188 0.00390625 8.75 C 0.00390625 4.195312 3.695312 0.5 8.253906 0.5 Z M 8.253906 0.5"/><path fill="inherit" d="M 26.253906 0.5 C 31.042969 0.5 34.503906 4.457031 34.5 10.3125 C 34.472656 18.820312 28.074219 24.839844 18.84375 25.996094 C 17.988281 26.101562 17.660156 24.914062 18.445312 24.566406 C 21.988281 22.988281 23.777344 20.992188 24.007812 19.015625 C 24.179688 17.535156 23.378906 16.242188 22.367188 16 C 19.753906 15.371094 18.003906 12.117188 18.003906 8.75 C 18.003906 4.195312 21.695312 0.5 26.253906 0.5 Z M 26.253906 0.5"/></g></svg>