<?xml version="1.0" encoding="UTF-8" standalone="no"?><svg xmlns="http://www.w3.org/2000/svg" xmlns:xlink="http://www.w3.org/1999/xlink" contentScriptType="text/ecmascript" zoomAndPan="magnify" text-rendering="geometricPrecision" contentStyleType="text/css" version="1" width="801" clip-rule="evenodd" fill="#000000" preserveAspectRatio="xMidYMid meet" viewBox="0 0 801 144" height="144" fill-rule="evenodd" image-rendering="optimizeQuality"><g><path d="M76 0L94 55 152 55 105 89 123 144 76 110 29 144 47 89 0 55 58 55z"/><path d="M238 0L256 55 314 55 267 89 285 144 238 110 191 144 209 89 162 55 220 55z"/><path d="M401 0L419 55 477 55 430 89 448 144 401 110 354 144 372 89 325 55 383 55z"/><path d="M563 0L581 55 639 55 592 89 610 144 563 110 516 144 534 89 487 55 545 55z"/><path d="M726 0L743 55 801 55 754 89 772 144 726 110 679 144 697 89 650 55 708 55z"/></g></svg>